<?xml version="1.0" ?><svg id="Flat" viewBox="0 0 512 512" xmlns="http://www.w3.org/2000/svg"><defs><style>.cls-1{fill:#ffebd2;}.cls-2{fill:#d6f4fc;}.cls-3{fill:#e8f8fc;}.cls-4{fill:#bdeffc;}.cls-5{fill:#ffdfba;}.cls-6{fill:#42434d;}.cls-7{fill:#4d4e59;}.cls-8{fill:#fff3e4;}.cls-9{fill:#fe4f60;}.cls-10{fill:#e84857;}.cls-11{fill:#d0ffad;}.cls-12{fill:#ff6d7a;}</style></defs><title/><g data-name="19. Guy and around the bacteria" id="_19._Guy_and_around_the_bacteria"><path class="cls-1" d="M410,480.74a7.26,7.26,0,0,1-7.26,7.26H109.26a7.26,7.26,0,0,1-7.26-7.26c0-40.8,32.78-74.57,73.5-74.57,21.65,0,37.2-14.17,41.38-31.75h0c1.36-5.63,1.13-9.27,1.13-16.42l.15-.37A99,99,0,0,1,157,266.13V263a24.86,24.86,0,0,1-20.22-10.06s0,0,0,0a24.28,24.28,0,0,1-4.32-9.8c-.64-3.27-.45,4.11-.45-102.12a27,27,0,0,1,27-27,79.55,79.55,0,0,1,73.85-50c47.59,0,78.17-.36,80.72.92a78.76,78.76,0,0,1,21.51,6.52c.09,0,2,1,2.1,1A79.53,79.53,0,0,1,381,143.54V237a26,26,0,0,1-26,26v3.13a99,99,0,0,1-61.15,91.5l.15.37c0,7.15-.23,10.8,1.13,16.42h0a41.43,41.43,0,0,0,40.7,31.75C376.85,405.79,410,439.71,410,480.74Z"/><path class="cls-2" d="M410,480.74a7.26,7.26,0,0,1-7.26,7.26H109.26a7.26,7.26,0,0,1-7.26-7.26c0-41,33.15-74.95,74.18-74.57a41.47,41.47,0,0,0,16.92-3.42h0a68.71,68.71,0,0,0,125.8,0h0a41.47,41.47,0,0,0,16.92,3.42C376.85,405.79,410,439.71,410,480.74Z"/><path class="cls-3" d="M188.05,435.35c-21.56,5.58-48.88,18.83-56.18,52.65H109.26a7.26,7.26,0,0,1-7.26-7.26,74.57,74.57,0,0,1,43.88-68h0c23.82-10.68,30.59-3.08,47.21-10a68.17,68.17,0,0,0,4.63,8.75A16,16,0,0,1,188.05,435.35Z"/><path class="cls-4" d="M409.67,480.74a7.26,7.26,0,0,1-7.26,7.26H379.8c-7.3-33.82-34.62-47.07-56.18-52.65a16,16,0,0,1-9.68-23.84,70.77,70.77,0,0,0,4.63-8.75c16.62,6.92,23.39-.68,47.21,10h0A74.57,74.57,0,0,1,409.67,480.74Z"/><path class="cls-1" d="M162,190.84a4.24,4.24,0,0,1,.71-.22C162.47,190.69,162.23,190.75,162,190.84Z"/><path class="cls-5" d="M295.13,374.42a99.3,99.3,0,0,1-78.26,0c1.36-5.63,1.13-9.27,1.13-16.42l.15-.37a99.17,99.17,0,0,0,75.7,0l.15.37C294,365.15,293.77,368.8,295.13,374.42Z"/><path class="cls-6" d="M381,143.54V237a26,26,0,0,1-26,26V207.63a8,8,0,0,0-7.51-8,286.29,286.29,0,0,1-136.12-43.78,8,8,0,0,0-12.05,4.75c-2.09,7.91-6.79,18-17.32,24.38-9.68,5.83-17.18,4.68-20,5.84a8,8,0,0,0-5,7.4V263a24.86,24.86,0,0,1-20.22-10.06s0,0,0,0a24.25,24.25,0,0,1-4.32-9.8c-.64-3.27-.45,4.11-.45-102.12a27,27,0,0,1,27-27,79.55,79.55,0,0,1,73.85-50c47.59,0,78.17-.36,80.72.92,11,1.66,22.68,6.61,23.61,7.54A79.53,79.53,0,0,1,381,143.54Z"/><path class="cls-1" d="M162,190.84a4.24,4.24,0,0,1,.71-.22C162.47,190.69,162.23,190.75,162,190.84Z"/><path class="cls-7" d="M331.89,94h-69a79.54,79.54,0,0,0-71.48,44.66,11,11,0,0,1-7.81,5.89A27,27,0,0,0,162,171v19.84a8,8,0,0,0-5,7.4v47.49c0,10.83-13.69,15.49-20.22,7.21,0,0,0,0,0,0a24.46,24.46,0,0,1-4.12-8.89c-.9-3.88-.65,3.63-.65-103a27,27,0,0,1,27-27,79.56,79.56,0,0,1,73.85-50c47.27,0,78.16-.36,80.72.92a80.06,80.06,0,0,1,19.68,5.7c.2.08,3.78,1.69,3.93,1.84C348,77.9,344,94.06,331.89,94Z"/><path class="cls-8" d="M234.16,177.88c-1.75,14.18-8,26.89-18.34,34.6C197.36,226.2,187,248.27,187,271.27v24.86c0,14.83-18.87,17.52-23.57,5.18A98.92,98.92,0,0,1,157,266.13V198.24a8,8,0,0,1,7.57-8c16.25-.93,29.85-11.12,34.75-29.64a8,8,0,0,1,12-4.76c5,3.2,10.55,6.45,16.5,9.66A12.3,12.3,0,0,1,234.16,177.88Z"/><circle class="cls-9" cx="454" cy="140" r="17"/><path class="cls-10" d="M107,89.34,94.11,81.89a8,8,0,0,1,8-13.86L115,75.48a8,8,0,1,1-8,13.86Z"/><path class="cls-10" d="M52.45,57.84,39.56,50.4a8,8,0,0,1,8-13.86L60.45,44a8,8,0,1,1-8,13.86Z"/><path class="cls-10" d="M91.18,54.91A8,8,0,0,1,94.11,44L107,36.54a8,8,0,1,1,8,13.86l-12.89,7.44A8,8,0,0,1,91.18,54.91Z"/><path class="cls-10" d="M36.63,86.41a8,8,0,0,1,2.93-10.93L52.45,68a8,8,0,1,1,8,13.86L47.56,89.34A8,8,0,0,1,36.63,86.41Z"/><path class="cls-10" d="M77.28,109.88a8,8,0,0,1-8-8V87a8,8,0,1,1,16,0v14.89A8,8,0,0,1,77.28,109.88Z"/><path class="cls-10" d="M77.28,46.89a8,8,0,0,1-8-8V24a8,8,0,0,1,16,0V38.89A8,8,0,0,1,77.28,46.89Z"/><path class="cls-11" d="M19.63,262.7a8,8,0,0,1-2.33-11.07,37.21,37.21,0,0,1,15.31-13.88c12.2-5.72,19.52.24,27.72-12.16a8,8,0,0,1,13.34,8.82,35.88,35.88,0,0,1-14.16,12.78c-12.64,6.18-19.91-.49-28.81,13.18A8,8,0,0,1,19.63,262.7Z"/><path class="cls-9" d="M460.52,283a8,8,0,0,1-8-8c0-7.3-6-11.33-12.65-11a8,8,0,0,1-.94-16c15.84-.93,29.68,10.4,29.59,27A8,8,0,0,1,460.52,283Z"/><path class="cls-9" d="M98.11,75A24,24,0,1,1,77.28,38.89,24.06,24.06,0,0,1,98.11,75Z"/><path class="cls-12" d="M461.78,133.2a17.21,17.21,0,0,0-14.67,14.66,4,4,0,0,1-7.24,1.68A17,17,0,0,1,463.47,126,4,4,0,0,1,461.78,133.2Z"/><path class="cls-12" d="M87.94,41.38a4,4,0,0,1-1.74,7.53,24,24,0,0,0-23,23,4,4,0,0,1-7.6,1.58C45.6,52.68,67.82,31.21,87.94,41.38Z"/></g></svg>