<?xml version="1.0" standalone="no"?><!DOCTYPE svg PUBLIC "-//W3C//DTD SVG 1.1//EN" "http://www.w3.org/Graphics/SVG/1.1/DTD/svg11.dtd"><svg t="1705456171362" class="icon" viewBox="0 0 1024 1024" version="1.1" xmlns="http://www.w3.org/2000/svg" p-id="13149" xmlns:xlink="http://www.w3.org/1999/xlink" width="64" height="64"><path d="M512 512m-512 0a512 512 0 1 0 1024 0 512 512 0 1 0-1024 0Z" fill="#D3D1D1" p-id="13150"></path><path d="M598.4 368c0 17.6-14.4 32-32 32h-41.6c-17.6 0-32-14.4-32-32V264c0-17.6 14.4-32 32-32h41.6c17.6 0 32 14.4 32 32v104z" fill="#EAEAEA" p-id="13151"></path><path d="M492.8 336h102.4v32H492.8z" fill="#D4D6D6" p-id="13152"></path><path d="M492 280H592v40H492z" fill="#FF4848" p-id="13153"></path><path d="M562.4 405.6h-3.2l-40-3.2c-21.6-1.6-39.2-20.8-39.2-42.4V264c0-22.4 17.6-40 40-40h40c22.4 0 40 17.6 40 40v104c0 20.8-16.8 37.6-37.6 37.6zM520 240c-13.6 0-24 10.4-24 24v96c0 13.6 11.2 25.6 24.8 26.4l40 3.2c12.8 0.8 23.2-8.8 23.2-21.6V264c0-13.6-10.4-24-24-24h-40z" fill="#074370" p-id="13154"></path><path d="M712 451.2c0 17.6-14.4 32-32 32H460.8c-17.6 0-32-14.4-32-32v-54.4c0-17.6 14.4-32 32-32H680c17.6 0 32 14.4 32 32v54.4z" fill="#EAEAEA" p-id="13155"></path><path d="M428.8 384h284v16H428.8z" fill="#D4D6D6" p-id="13156"></path><path d="M680 491.2H456c-22.4 0-40-17.6-40-40V392c0-22.4 17.6-40 40-40h224c22.4 0 40 17.6 40 40v59.2c0 22.4-17.6 40-40 40zM456 368c-13.6 0-24 10.4-24 24v59.2c0 13.6 10.4 24 24 24h224c13.6 0 24-10.4 24-24V392c0-13.6-10.4-24-24-24H456z" fill="#074370" p-id="13157"></path><path d="M796 493.6c0 17.6-14.4 32-32 32H385.6c-17.6 0-32-14.4-32-32v-54.4c0-17.6 14.4-32 32-32h378.4c17.6 0 32 14.4 32 32v54.4z" fill="#EAEAEA" p-id="13158"></path><path d="M356 472h438.4v32H356z" fill="#D4D6D6" p-id="13159"></path><path d="M760 533.6H384c-22.4 0-40-17.6-40-40V440c0-22.4 17.6-40 40-40h376c22.4 0 40 17.6 40 40v53.6c0 21.6-17.6 40-40 40zM384 416c-13.6 0-24 10.4-24 24v53.6c0 13.6 10.4 24 24 24h376c13.6 0 24-10.4 24-24V440c0-13.6-10.4-24-24-24H384z" fill="#074370" p-id="13160"></path><path d="M846.4 662.4c-5.6 25.6-32 47.2-58.4 47.2H388.8c-26.4 0-52-21.6-56.8-47.2l-21.6-113.6c-4.8-25.6 12.8-47.2 39.2-47.2h484.8c26.4 0 43.2 20.8 37.6 47.2l-25.6 113.6z" fill="#EAEAEA" p-id="13161"></path><path d="M432 456m-24 0a24 24 0 1 0 48 0 24 24 0 1 0-48 0Z" fill="#FBD000" p-id="13162"></path><path d="M432 488c-17.6 0-32-14.4-32-32s14.4-32 32-32 32 14.4 32 32-14.4 32-32 32z m0-46.4c-8 0-14.4 6.4-14.4 14.4s6.4 14.4 14.4 14.4 14.4-6.4 14.4-14.4-6.4-14.4-14.4-14.4z" fill="#074370" p-id="13163"></path><path d="M528 456m-24 0a24 24 0 1 0 48 0 24 24 0 1 0-48 0Z" fill="#FBD000" p-id="13164"></path><path d="M528 488c-17.6 0-32-14.4-32-32s14.4-32 32-32 32 14.4 32 32-14.4 32-32 32z m0-46.4c-8 0-14.4 6.4-14.4 14.4s6.4 14.4 14.4 14.4 14.4-6.4 14.4-14.4-6.4-14.4-14.4-14.4z" fill="#074370" p-id="13165"></path><path d="M624 456m-24 0a24 24 0 1 0 48 0 24 24 0 1 0-48 0Z" fill="#FBD000" p-id="13166"></path><path d="M624 488c-17.6 0-32-14.4-32-32s14.4-32 32-32 32 14.4 32 32-14.4 32-32 32z m0-46.4c-8 0-14.4 6.4-14.4 14.4s6.4 14.4 14.4 14.4 14.4-6.4 14.4-14.4-6.4-14.4-14.4-14.4z" fill="#074370" p-id="13167"></path><path d="M712 456m-24 0a24 24 0 1 0 48 0 24 24 0 1 0-48 0Z" fill="#FBD000" p-id="13168"></path><path d="M712 488c-17.6 0-32-14.4-32-32s14.4-32 32-32 32 14.4 32 32-14.4 32-32 32z m0-46.4c-8 0-14.4 6.4-14.4 14.4s6.4 14.4 14.4 14.4 14.4-6.4 14.4-14.4-6.4-14.4-14.4-14.4z" fill="#074370" p-id="13169"></path><path d="M788 709.6c26.4 0 52.8-21.6 58.4-48.8l9.6-44c-7.2 0.8-13.6 3.2-19.2 6.4-14.4 8.8-37.6 8.8-51.2 0-14.4-8.8-37.6-8.8-51.2 0-14.4 8.8-37.6 8.8-51.2 0-14.4-8.8-37.6-8.8-51.2 0-14.4 8.8-37.6 8.8-51.2 0-14.4-8.8-37.6-8.8-51.2 0-14.4 8.8-37.6 8.8-51.2 0-14.4-8.8-37.6-8.8-51.2 0-14.4 8.8-37.6 8.8-51.2 0-13.6-8.8-35.2-8.8-49.6-0.8l7.2 38.4c4 21.6 20.8 40 40.8 46.4l88 2.4h325.6z" fill="#D4D6D6" p-id="13170"></path><path d="M787.2 717.6H390.4c-29.6 0-59.2-24-64.8-53.6l-20.8-111.2c-3.2-15.2 0.8-28.8 9.6-40 8.8-11.2 22.4-16.8 37.6-16.8h482.4c15.2 0 28 5.6 36.8 16.8 8.8 11.2 11.2 24.8 8 40l-25.6 112c-7.2 28.8-36.8 52.8-66.4 52.8zM351.2 512c-10.4 0-19.2 4-24.8 11.2-5.6 7.2-8 16.8-5.6 26.4l20.8 111.2c4 22.4 26.4 40.8 48.8 40.8h396.8c22.4 0 45.6-18.4 50.4-40.8l25.6-112c2.4-10.4 0.8-19.2-4.8-26.4-5.6-7.2-14.4-10.4-24-10.4H351.2z" fill="#074370" p-id="13171"></path><path d="M514.4 1024c234.4 0 432-157.6 492.8-372-10.4-0.8-20.8 1.6-28 6.4-14.4 8.8-37.6 8.8-51.2 0-14.4-8.8-37.6-8.8-51.2 0-14.4 8.8-37.6 8.8-51.2 0-14.4-8.8-37.6-8.8-51.2 0-14.4 8.8-37.6 8.8-51.2 0-14.4-8.8-37.6-8.8-51.2 0-14.4 8.8-37.6 8.8-51.2 0-14.4-8.8-37.6-8.8-51.2 0-14.4 8.8-37.6 8.8-51.2 0-14.4-8.8-37.6-8.8-51.2 0-14.4 8.8-37.6 8.8-51.2 0-14.4-8.8-37.6-8.8-51.2 0-14.4 8.8-37.6 8.8-51.2 0s-37.6-8.8-51.2 0c-14.4 8.8-37.6 8.8-51.2 0-14.4-8.8-37.6-8.8-51.2 0s-37.6 8.8-51.2 0c-14.4-8.8-37.6-8.8-51.2 0-7.2 4.8-17.6 7.2-28 6.4 60.8 208 255.2 359.2 484.8 359.2z" fill="#3AD0F9" p-id="13172"></path><path d="M974.4 648.8c-12 8-31.2 8-43.2 0-16.8-11.2-43.2-11.2-60 0-12 8-31.2 8-43.2 0-16.8-11.2-43.2-11.2-60 0-12 8-31.2 8-43.2 0-16.8-11.2-43.2-11.2-60 0-12 8-31.2 8-43.2 0-16.8-11.2-43.2-11.2-60 0-12 8-31.2 8-43.2 0-16.8-11.2-43.2-11.2-60 0-12 8-31.2 8-43.2 0-16.8-11.2-43.2-11.2-60 0-12 8-31.2 8-43.2 0-16.8-11.2-43.2-11.2-60 0-12 8-31.2 8-43.2 0-16.8-11.2-43.2-11.2-60 0-12 8-31.2 8-43.2 0-16.8-11.2-43.2-11.2-60 0-7.2 4.8-16.8 6.4-25.6 5.6 1.6 5.6 3.2 12 4.8 17.6 10.4 0 20.8-3.2 28.8-8.8 12-8 31.2-8 43.2 0 16.8 11.2 43.2 11.2 60 0 12-8 31.2-8 43.2 0 16.8 11.2 43.2 11.2 60 0 12-8 31.2-8 43.2 0 16.8 11.2 43.2 11.2 60 0 12-8 31.2-8 43.2 0 16.8 11.2 43.2 11.2 60 0 12-8 31.2-8 43.2 0 16.8 11.2 43.2 11.2 60 0 12-8 31.2-8 43.2 0 16.8 11.2 43.2 11.2 60 0 12-8 31.2-8 43.2 0 16.8 11.2 43.2 11.2 60 0 12-8 31.2-8 43.2 0 16.8 11.2 43.2 11.2 60 0 12-8 31.2-8 43.2 0 16.8 11.2 43.2 11.2 60 0 5.6-4 13.6-5.6 21.6-5.6l4.8-16.8c-12-1.6-24.8 1.6-34.4 8z" fill="#074370" p-id="13173"></path><path d="M398.4 768c-8.8 0-17.6-4.8-23.2-12-5.6-7.2-14.4-7.2-20 0-5.6 8-14.4 12-23.2 12-8.8 0-17.6-4.8-23.2-12-5.6-7.2-14.4-7.2-20 0-2.4 3.2-7.2 4-11.2 1.6-4-2.4-4.8-7.2-2.4-10.4 5.6-8 14.4-12 23.2-12 8.8 0 17.6 4.8 23.2 12 3.2 4 6.4 5.6 9.6 5.6 3.2 0 7.2-2.4 9.6-5.6 5.6-8 14.4-12 23.2-12s17.6 4.8 23.2 12c5.6 7.2 14.4 7.2 20 0 5.6-8 14.4-12 23.2-12 8.8 0 17.6 4.8 23.2 12 2.4 3.2 1.6 8-2.4 10.4-4 2.4-8.8 1.6-11.2-1.6-5.6-7.2-14.4-7.2-20 0-4.8 7.2-12.8 12-21.6 12zM597.6 800c-8.8 0-17.6-4-23.2-12-5.6-7.2-14.4-7.2-20 0-2.4 3.2-7.2 4-11.2 1.6-4-2.4-4.8-6.4-2.4-9.6 5.6-7.2 14.4-12 23.2-12 8.8 0 17.6 4 23.2 12 3.2 4 6.4 5.6 9.6 5.6 3.2 0 7.2-2.4 9.6-5.6 5.6-7.2 14.4-12 23.2-12 8.8 0 17.6 4 23.2 12 2.4 3.2 1.6 8-2.4 9.6-4 2.4-8.8 1.6-11.2-1.6-5.6-7.2-14.4-7.2-20 0-4.8 8-12.8 12-21.6 12zM815.2 768c-8.8 0-17.6-4.8-23.2-12-5.6-7.2-14.4-7.2-20 0-2.4 3.2-7.2 4-11.2 1.6-4-2.4-4.8-7.2-2.4-10.4 5.6-8 14.4-12 23.2-12 8.8 0 17.6 4.8 23.2 12 3.2 4 6.4 5.6 9.6 5.6 3.2 0 7.2-2.4 9.6-5.6 5.6-8 14.4-12 23.2-12 8.8 0 17.6 4.8 23.2 12 2.4 3.2 1.6 8-2.4 10.4-4 2.4-8.8 1.6-11.2-1.6-5.6-7.2-14.4-7.2-20 0-4 7.2-12.8 12-21.6 12zM307.2 904c-8.8 0-17.6-4-23.2-12-5.6-7.2-14.4-7.2-20 0-2.4 3.2-7.2 4-11.2 1.6-4-2.4-4.8-6.4-2.4-9.6 5.6-7.2 14.4-12 23.2-12 8.8 0 17.6 4 23.2 12 3.2 4 6.4 5.6 9.6 5.6 3.2 0 7.2-2.4 9.6-5.6 5.6-7.2 14.4-12 23.2-12 8.8 0 17.6 4 23.2 12 2.4 3.2 1.6 8-2.4 9.6-4 2.4-8.8 1.6-11.2-1.6-5.6-7.2-14.4-7.2-20 0-4.8 8-12.8 12-21.6 12z" fill="#FFFFFF" p-id="13174"></path><path d="M528 64c8.8 0 16 7.2 16 16s-6.4 16-13.6 16-13.6 5.6-13.6 12 7.2 12 16 12H600c8.8 0 16 7.2 16 16s-7.2 16-16 16h-24c-8.8 0-16 7.2-16 16v16c0 8.8-7.2 16-16 16s-16-7.2-16-16v-16.8c0-8.8-7.2-16-16-16H432c-8.8 0-16-7.2-16-16s7.2-16 16-16h24c8.8 0 16-5.6 16-12s-7.2-12-16-12h-56c-8.8 0-16-7.2-16-16s7.2-16 16-16h128zM832 544h-48c-4.8 0-8-3.2-8-8s4-8 8-8h48c4.8 0 8 3.2 8 8s-4 8-8 8zM736 544H392c-4.8 0-8-3.2-8-8s4-8 8-8h344c4.8 0 8 3.2 8 8s-4 8-8 8zM566.4 264h-41.6c-4.8 0-8-3.2-8-8s3.2-8 8-8h41.6c4.8 0 8 3.2 8 8s-4 8-8 8zM352 295.2c0-8.8-8-15.2-17.6-15.2H320c-9.6 0-16-8-16-16s-10.4-16-20-16H182.4c-9.6 0-14.4 8-14.4 16s-11.2 16-20.8 16h-17.6c-9.6 0-17.6 6.4-17.6 15.2 0 8.8 8 16.8 17.6 16.8h50.4c9.6 0 17.6 4.8 17.6 12s-8 12-17.6 12h-8.8c-9.6 0-17.6 8-17.6 16 0 8.8 8 16 17.6 16h48.8c9.6 0 20.8-8 20.8-16s4.8-8 15.2-8h5.6c9.6 0 19.2-8 19.2-16s6.4-16 16-16h38.4c8.8 0 16.8-8 16.8-16.8z" fill="#FFFFFF" p-id="13175"></path><path d="M136 568c-17.6 0-32-14.4-32-32s14.4-32 32-32 32 14.4 32 32-14.4 32-32 32z m0-48.8c-9.6 0-16.8 8-16.8 16.8 0 9.6 8 16.8 16.8 16.8 9.6 0 16.8-8 16.8-16.8 0-9.6-7.2-16.8-16.8-16.8zM880 424c-17.6 0-32-14.4-32-32s14.4-32 32-32 32 14.4 32 32-14.4 32-32 32z m0-48.8c-9.6 0-16.8 8-16.8 16.8 0 9.6 8 16.8 16.8 16.8 9.6 0 16.8-8 16.8-16.8 0-9.6-7.2-16.8-16.8-16.8zM788.8 222.4c0-3.2-3.2-6.4-8-7.2l-15.2-2.4c-4-0.8-8.8-4.8-8.8-8.8l-2.4-15.2c-0.8-4-4-8-7.2-8s-6.4 3.2-7.2 8l-2.4 15.2c-0.8 4-4.8 8.8-8.8 8.8l-15.2 2.4c-4 0.8-8 4-8 7.2s3.2 6.4 8 7.2l15.2 2.4c4 0.8 8.8 4.8 8.8 8.8l2.4 15.2c0.8 4 4 8 7.2 8s6.4-3.2 6.4-8l2.4-16.8c0.8-4 4.8-8 8.8-8.8l14.4-0.8c6.4-1.6 9.6-4 9.6-7.2z" fill="#FFFFFF" p-id="13176"></path><path d="M696.8 903.2c0-3.2-3.2-6.4-8-7.2l-15.2-2.4c-4-0.8-8.8-4.8-8.8-8.8l-2.4-15.2c-0.8-4-4-8-7.2-8s-6.4 3.2-7.2 8l-2.4 15.2c-0.8 4-4.8 8.8-8.8 8.8l-15.2 2.4c-4 0.8-8 4-8 7.2s3.2 6.4 8 7.2l15.2 2.4c4 0.8 8.8 4.8 8.8 8.8l2.4 15.2c0.8 4 4 8 7.2 8s6.4-3.2 6.4-8l2.4-16.8c0.8-4 4.8-8 8.8-8.8l14.4-0.8c6.4-1.6 9.6-4 9.6-7.2z" fill="#FFFFFF" p-id="13177"></path></svg>