<?xml version="1.0" standalone="no"?><!DOCTYPE svg PUBLIC "-//W3C//DTD SVG 1.1//EN" "http://www.w3.org/Graphics/SVG/1.1/DTD/svg11.dtd"><svg t="1705455937864" class="icon" viewBox="0 0 1024 1024" version="1.1" xmlns="http://www.w3.org/2000/svg" p-id="6213" xmlns:xlink="http://www.w3.org/1999/xlink" width="64" height="64"><path d="M196.458 462.05l-44.486-44.488V392.66c0-21.148-17.144-38.292-38.292-38.292H50.292C29.144 354.368 12 371.512 12 392.66c0 21.148 17.144 38.292 38.292 38.292h58.5l59.382 59.384 28.284-28.286zM829.542 462.05l44.486-44.488V392.66c0-21.148 17.144-38.292 38.292-38.292h63.388c21.148 0 38.292 17.144 38.292 38.292 0 21.148-17.144 38.292-38.292 38.292h-58.5l-59.382 59.384-28.284-28.286z" fill="#333399" p-id="6214"></path><path d="M864.404 479.956H159.596l47.902-274.988c11.542-66.264 69.062-114.63 136.324-114.63H680.18c67.262 0 124.78 48.366 136.324 114.63l47.9 274.988z" fill="#333399" p-id="6215"></path><path d="M334.388 130.338h355.224c52.656 0 99.636 26.592 125.398 67.336-14.352-62.484-70.066-107.336-134.83-107.336H343.822c-64.764 0-120.478 44.85-134.83 107.336 25.76-40.744 72.74-67.336 125.396-67.336z" fill="#6770E6" p-id="6216"></path><path d="M220.672 479.956l45.936-264.69a78.234 78.234 0 0 1 77.214-64.926H680.18a78.236 78.236 0 0 1 77.214 64.926l46.148 264.69H220.672z" fill="#69EBFC" p-id="6217"></path><path d="M227.536 933.662h-86.94c-15.898 0-28.784-12.888-28.784-28.784V842.88h144.51v61.996c0 15.898-12.888 28.786-28.786 28.786z" fill="#29297A" p-id="6218"></path><path d="M982.916 842.88H41.086C23.918 842.88 10 828.964 10 811.796v-28.612c0-17.168 13.918-31.084 31.084-31.084h941.83c17.168 0 31.084 13.918 31.084 31.084v28.612c0.002 17.168-13.914 31.084-31.082 31.084z" fill="#333399" p-id="6219"></path><path d="M950.384 565.63c-13.364-67.324-72.436-115.824-141.072-115.824h-102.41C677.924 370.228 601.6 313.398 512 313.398c-89.6 0-165.922 56.83-194.902 136.408h-102.41c-68.638 0-127.71 48.5-141.072 115.824L36.606 752.1h950.788l-37.01-186.47z" fill="#6770E6" p-id="6220"></path><path d="M659.36 520.756v231.34H364.64v-231.34c0-64.04 41.06-118.66 98.24-138.92 15.36-5.48 31.9-8.44 49.12-8.44s33.76 2.96 49.12 8.44c57.178 20.26 98.24 74.88 98.24 138.92z" fill="#8F95E6" p-id="6221"></path><path d="M870.52 933.662h-86.942c-15.898 0-28.784-12.888-28.784-28.784V842.88h144.51v61.996c0 15.898-12.888 28.786-28.784 28.786z" fill="#29297A" p-id="6222"></path><path d="M227.538 893.662H140.596c-15.898 0-28.784-12.888-28.784-28.784v40c0 15.898 12.886 28.784 28.784 28.784h86.942c15.898 0 28.784-12.888 28.784-28.784v-40c0 15.896-12.888 28.784-28.784 28.784zM870.52 893.662h-86.942c-15.898 0-28.784-12.888-28.784-28.784v40c0 15.898 12.886 28.784 28.784 28.784h86.942c15.898 0 28.784-12.888 28.784-28.784v-40c0 15.896-12.886 28.784-28.784 28.784z" fill="#1F1F5C" p-id="6223"></path><path d="M561.12 407.24v344.86h-98.24V407.246c0-2.45 1.53-4.624 3.82-5.498 0.948-0.362 1.9-0.712 2.86-1.052 13.58-4.86 27.84-7.3 42.44-7.3s28.86 2.44 42.4 7.28c0.974 0.342 1.942 0.698 2.9 1.066a5.902 5.902 0 0 1 3.82 5.498zM581.12 752.1V425.212c0-4.852 5.602-7.652 9.418-4.654 30.202 23.73 48.822 60.448 48.822 100.2V752.1h-58.24zM442.878 752.1V425.212c0-4.852-5.602-7.652-9.418-4.654-30.202 23.73-48.822 60.448-48.822 100.2V752.1h58.24z" fill="#333399" p-id="6224"></path><path d="M278.01 442.366m-79.738 0a79.738 79.738 0 1 0 159.476 0 79.738 79.738 0 1 0-159.476 0Z" fill="#333399" p-id="6225"></path><path d="M278.012 502.104c-32.94 0-59.738-26.798-59.738-59.738s26.798-59.74 59.738-59.74 59.738 26.8 59.738 59.74-26.8 59.738-59.738 59.738z" fill="#29297A" p-id="6226"></path><path d="M745.99 442.366m-79.738 0a79.738 79.738 0 1 0 159.476 0 79.738 79.738 0 1 0-159.476 0Z" fill="#333399" p-id="6227"></path><path d="M745.99 502.104c-32.94 0-59.738-26.798-59.738-59.738s26.798-59.74 59.738-59.74 59.738 26.8 59.738 59.74-26.798 59.738-59.738 59.738z" fill="#29297A" p-id="6228"></path><path d="M257.762 405.182c14.29-0.148 20.102 9.496 20.102 9.496s5.62-9.348 19.91-9.496c14.29-0.148 25.086 11.816 25.202 22.962 0.116 11.146-1.536 19.13-22.106 36.644-7.224 6.15-13.294 10.518-17.272 13.192a9.234 9.234 0 0 1-10.152 0.106c-4.032-2.59-10.192-6.832-17.542-12.83-20.928-17.082-22.746-25.032-22.86-36.176-0.118-11.15 10.428-23.75 24.718-23.898zM725.74 405.182c14.29-0.148 20.102 9.496 20.102 9.496s5.62-9.348 19.91-9.496c14.29-0.148 25.086 11.816 25.202 22.962 0.116 11.146-1.536 19.13-22.106 36.644-7.224 6.15-13.294 10.518-17.272 13.192a9.234 9.234 0 0 1-10.152 0.106c-4.032-2.59-10.192-6.832-17.542-12.83-20.928-17.082-22.746-25.032-22.86-36.176-0.118-11.15 10.428-23.75 24.718-23.898z" fill="#FF8354" p-id="6229"></path></svg>