<?xml version="1.0" standalone="no"?><!DOCTYPE svg PUBLIC "-//W3C//DTD SVG 1.1//EN" "http://www.w3.org/Graphics/SVG/1.1/DTD/svg11.dtd"><svg t="1705456242141" class="icon" viewBox="0 0 1024 1024" version="1.1" xmlns="http://www.w3.org/2000/svg" p-id="17080" xmlns:xlink="http://www.w3.org/1999/xlink" width="64" height="64"><path d="M791.717861 296.014363c-84.874958-28.691986-195.242903 9.196995-225.033888 90.972954-15.894992 52.783974-26.791987 108.167946-19.293991 162.651919 3.298998 23.992988 12.695994 160.55292-47.385976 217.235892-5.898997 5.598997-5.098997 14.495993 2.398999 17.694991l210.637895 89.173956c23.592988-17.394991 46.885977-44.086978 71.478964-81.675959l29.290986-44.586978C853.49983 687.000168 884.190815 621.318201 904.684804 552.538235l13.895994-46.885977c22.192989-97.370952-41.987979-180.94691-126.862937-209.637895m-309.209846 526.444737l209.039896 96.171952s-62.281969 146.456927-168.050917 93.571954c-105.969947-52.783974-40.98798-189.743905-40.987979-189.743906M297.063107 0.00151C386.937062 0.20051 478.110017 71.380474 478.010017 157.954431c-3.099998 54.883973-11.996994 110.567945-37.688981 159.652921-11.296994 21.593989-67.179967 147.356927-30.190985 220.03589 3.598998 7.097996-0.1 15.294992-8.397996 15.894992L172.400169 570.133226c-16.195992-24.192988-28.991986-56.682972-39.28898-99.86995l-12.395994-51.484975c-16.694992-69.779965-22.992989-141.45893-18.694991-212.937894l2.999999-48.685975C117.815196 57.984481 207.190152-0.19849 297.062107 0.00151m120.36494 591.125706l-229.132886 21.193989s10.096995 158.752921 127.362937 144.157928c117.364942-14.595993 101.769949-165.351918 101.769949-165.351917" fill="#22C49E" p-id="17081"></path></svg>